 <svg
    width="40"
    height="45"
    viewBox="0 0 126 105"
    fill="none"
    xmlns="http://www.w3.org/2000/svg"
  >
    <path
      fill-rule="evenodd"
      clip-rule="evenodd"
      d="M65.0121 30.6618C61.3469 28.5314 57.104 27.3268 52.5724 27.3268C38.7665 27.3268 27.5819 38.5587 27.5819 52.4228C27.5819 66.2859 38.7665 77.5189 52.5724 77.5189C57.104 77.5189 61.3469 76.3142 65.0121 74.1839L84.4381 93.6919C75.5637 100.674 64.379 104.846 52.2281 104.846C23.3946 104.846 0.0256348 81.3781 0.0256348 52.4228C0.0256348 23.4676 23.3946 0 52.2281 0C64.379 0 75.5637 4.17152 84.4381 11.1538L65.0121 30.6618Z"
      fill="#D95C35"
    />
    <path
      fill-rule="evenodd"
      clip-rule="evenodd"
      d="M94.8221 16.7542C103.123 26.5733 108.122 39.2855 108.122 53.1483C108.122 66.7318 103.324 79.1983 95.3354 88.9392L107.542 101.161C119.012 88.2466 125.974 71.2225 125.974 52.5898C125.974 33.9571 119.012 16.933 107.542 4.01965L94.8221 16.7542Z"
      fill="#D95C35"
    />
    <path
      fill-rule="evenodd"
      clip-rule="evenodd"
      d="M76.7338 34.9401C81.0529 39.769 83.6645 46.1629 83.6645 53.1492C83.6645 59.8561 81.2538 66.004 77.2472 70.7547L89.2114 82.7376C96.8229 74.98 101.522 64.3273 101.522 52.5903C101.522 40.8533 96.8229 30.2006 89.2114 22.443L76.7338 34.9401Z"
      fill="#D95C35"
    />
  </svg>